<?xml version="1.0" standalone="no"?>
<!DOCTYPE svg PUBLIC "-//W3C//DTD SVG 20010904//EN"
 "http://www.w3.org/TR/2001/REC-SVG-20010904/DTD/svg10.dtd">
<svg version="1.0" xmlns="http://www.w3.org/2000/svg"
 width="512.000000pt" height="512.000000pt" viewBox="0 0 512.000000 512.000000"
 preserveAspectRatio="xMidYMid meet">
<metadata>
Created by potrace 1.14, written by Peter Selinger 2001-2017
</metadata>
<g transform="translate(0.000000,512.000000) scale(0.100000,-0.100000)"
fill="#000000" stroke="none">
<path d="M883 4861 c-56 -26 -358 -328 -384 -385 -23 -52 -25 -162 -3 -214 34
-83 111 -133 202 -132 115 1 138 -1 180 -21 43 -21 55 -36 180 -218 l51 -75
-22 -22 c-30 -30 -127 -165 -171 -239 -20 -32 -36 -55 -37 -49 -5 72 -53 133
-124 161 -37 14 -336 17 -385 3 -44 -12 -96 -60 -116 -108 -12 -28 -15 -62
-12 -138 4 -114 20 -149 87 -195 35 -23 41 -24 227 -24 l192 0 -14 -45 c-26
-84 -53 -195 -70 -285 -20 -106 -27 -423 -13 -535 27 -215 92 -435 180 -616
30 -60 55 -112 57 -116 2 -5 -34 -8 -80 -8 -120 0 -176 -19 -242 -84 -56 -54
-73 -91 -83 -176 -10 -91 -39 -124 -125 -140 -37 -7 -62 -20 -83 -40 -30 -30
-30 -32 -33 -150 -3 -108 -2 -123 17 -154 26 -42 56 -53 154 -59 117 -6 147
-44 147 -189 0 -96 25 -162 81 -215 70 -66 100 -73 337 -73 143 0 221 4 235
12 32 16 57 48 63 77 12 64 31 106 57 125 25 19 44 21 175 24 167 3 181 5 209
29 34 31 43 59 43 143 0 62 3 81 13 77 6 -3 32 -12 57 -22 25 -9 54 -21 65
-25 97 -41 277 -85 425 -104 123 -16 419 -14 530 3 244 39 544 150 718 265 32
22 49 29 43 18 -21 -39 -85 -82 -142 -95 -44 -11 -103 -62 -128 -111 -49 -94
-21 -208 65 -269 55 -38 107 -43 232 -22 95 16 103 16 138 -1 38 -18 64 -62
64 -109 0 -13 13 -39 29 -57 l29 -33 194 0 c240 0 238 -1 399 163 141 144 149
163 149 348 l0 124 28 0 c38 1 103 32 141 69 50 49 74 114 68 186 -6 70 -25
112 -71 155 -57 54 -82 62 -206 68 -63 2 -116 5 -117 6 0 0 -4 17 -7 37 -17
108 -83 201 -173 244 l-41 20 36 75 c19 41 50 116 68 165 l32 90 188 5 c216 6
239 13 274 85 29 61 28 183 -2 237 -36 64 -62 72 -231 78 l-148 5 0 160 c-2
358 -93 688 -273 985 -25 41 -42 78 -38 81 15 14 287 112 323 116 29 4 53 -2
105 -27 55 -26 76 -31 114 -28 85 8 111 34 186 180 63 124 66 134 61 184 -3
29 -13 64 -22 78 -10 14 -67 66 -129 115 -155 124 -181 177 -137 288 32 83 5
180 -61 221 -25 16 -207 68 -333 96 -99 22 -133 27 -159 22 -17 -3 -94 -37
-171 -76 -139 -69 -152 -79 -335 -240 -228 -201 -276 -240 -290 -234 -64 29
-283 97 -360 113 -149 31 -164 32 -365 36 -186 4 -288 -4 -412 -30 l-63 -13 5
27 c3 14 8 60 11 101 6 65 3 81 -16 123 -28 60 -61 87 -174 145 l-91 47 -465
2 c-438 2 -467 1 -507 -16z"/>
</g>
</svg>
